<svg xmlns="http://www.w3.org/2000/svg" viewBox="0 0 120 120" role="img" aria-label="art-donkey">
<defs>
<symbol id="art-donkey" viewBox="0 0 120 120">
          <g stroke="#2f5148" stroke-width="3" stroke-linecap="round" stroke-linejoin="round">
            <g data-part="donkey-body">
              <path d="M28 73 Q24 92 31 107 L82 107 Q91 94 85 73 Z" fill="#9d8a74"/>
              <path d="M36 101 L34 116 M73 101 L75 116" fill="none" stroke-width="10"/>
              <path d="M36 101 L34 116 M73 101 L75 116" fill="none" stroke="#9d8a74" stroke-width="6"/>
              <path d="M29 116 H40 M69 116 H80" fill="none" stroke-width="5"/>
              <path d="M84 80 Q103 78 99 93" fill="none" stroke-width="4"/>
              <path d="M96 92 Q103 95 99 100 Q93 98 96 92 Z" fill="#5f5146"/>
            </g>
            <g data-part="donkey-ears">
              <path d="M34 40 Q17 24 20 5 Q35 7 44 33 Z" fill="#9d8a74"/>
              <path d="M29 29 Q24 18 25 12 Q33 16 38 31 Z" fill="#e8bea9" stroke-width="2"/>
              <path d="M70 34 Q78 9 95 6 Q98 24 79 42 Z" fill="#9d8a74"/>
              <path d="M77 31 Q84 17 91 13 Q91 22 82 35 Z" fill="#e8bea9" stroke-width="2"/>
            </g>
            <path data-part="donkey-mane" d="M43 30 Q48 20 53 29 Q58 18 63 29 Q68 21 72 33" fill="#5f5146"/>
            <path d="M27 56 Q27 34 49 29 Q70 25 84 42 Q94 54 87 72 Q79 89 57 91 Q34 91 26 74 Q22 65 27 56 Z" fill="#aa9780"/>
            <ellipse data-part="donkey-muzzle" cx="57" cy="69" rx="22" ry="15" fill="#f5dfbc" stroke-width="2.5"/>
            <path d="M38 50 Q44 46 50 49 M66 49 Q73 46 79 51" fill="none" stroke-width="2.5"/>
            <ellipse cx="45" cy="52" rx="4.6" ry="5.5" fill="#2f5148" stroke="none"/>
            <ellipse cx="73" cy="52" rx="4.6" ry="5.5" fill="#2f5148" stroke="none"/>
            <circle cx="43.5" cy="50.5" r="1.6" fill="#fffdf6" stroke="none"/><circle cx="71.5" cy="50.5" r="1.6" fill="#fffdf6" stroke="none"/>
            <ellipse cx="51" cy="67" rx="2.3" ry="1.8" fill="#2f5148" stroke="none"/><ellipse cx="64" cy="67" rx="2.3" ry="1.8" fill="#2f5148" stroke="none"/>
            <path d="M50 77 Q57 81 65 76" fill="none" stroke-width="2.5"/>
            <ellipse cx="33" cy="64" rx="5" ry="3" fill="#ee9f9a" stroke="none" opacity=".65"/>
          </g>
        </symbol>
</defs>
<use href="#art-donkey" width="120" height="120"/>
</svg>
